# xmcd
#
# Track frame offsets: 
#        150
#        15326
#        35613
#        60879
#        82568
#        99165
#        117912
#        134440
#        160991
#        177919
#        195683
#        225115
#        251010
#        270295
#        290175
#        316835
#        332441
#
# Disc length: 4764 seconds
#
# Revision: 0
# Processed by: cddbd v1.5.2PL0 Copyright (c) Steve Scherf et al.
# Submitted via: ExactAudioCopy v1.3
#
DISCID=cc129a11
DTITLE=Various Artist - Akella Presents - vol.202 - Various Styles Of
DTITLE=Blues  CD2
DYEAR=2019
DGENRE=Blues
TTITLE0=My My Snake Eyes - You Gotta Save Me
TTITLE1=Dave P.Moore - I Oughta' thank You (Oh but I'm Not)
TTITLE2=Billy Price - Dog Eat Dog
TTITLE3=The Moon Dogs - Riding With The Blues
TTITLE4=Bobby Rush - Sweet Lizzy
TTITLE5=Raw Blues Experience - Cinderella
TTITLE6=Eric Tessmer - Early, Early Morning
TTITLE7=Jack Tempchin - Out In The Desert
TTITLE8=Malted Milk - To Build Something
TTITLE9=Late Night Union - Same Ol' Situation
TTITLE10=Gary Eisenbraun - Time Catching Up With Me
TTITLE11=Linsey Alexander - Looks Like It's Going to Rain
TTITLE12=Ash Grunwald - Waiting Around To Die
TTITLE13=Guitar Shorty - I Just Can't Run Away From The Blues
TTITLE14=Tommy Grills - On The Blues Side Of Town
TTITLE15=Georgina Peach - Iґm On My Way
TTITLE16=Glenn Alexander and Shadowland - Born Under a Bad Sign
EXTD=
EXTT0=
EXTT1=
EXTT2=
EXTT3=
EXTT4=
EXTT5=
EXTT6=
EXTT7=
EXTT8=
EXTT9=
EXTT10=
EXTT11=
EXTT12=
EXTT13=
EXTT14=
EXTT15=
EXTT16=
PLAYORDER=
